{"title":"Editors - Live from Berlin Festival 2010 [HD] [720P]","uid":8809846,"size":1662342152,"categoryP":"video","categoryS":"music_videos","magnet":"?xt=urn:btih:ed4edede4ba5be7e399555194e65eb9d0be442db&amp;dn=Editors+-+Live+from+Berlin+Festival+2010+%5BHD%5D+%5B720P%5D&amp;tr=udp%3A%2F%2Ftracker.openbittorrent.com%3A80&amp;tr=udp%3A%2F%2Fopen.demonii.com%3A1337&amp;tr=udp%3A%2F%2Ftracker.coppersurfer.tk%3A6969&amp;tr=udp%3A%2F%2Fexodus.desync.com%3A6969","seeders":2,"leechers":0,"uploader":"justadog","files":1,"time":1376431886,"description":"Altrough the video is progressive, it is heavily interlaced, so i recommend it to use VLC and turn on deinterlacing\n\n\n\nGeneral\nComplete name                            : D:Editors - (HD)(Live)(Berlin Festival 2010)(Full Concert)720p.mp4\nFormat                                   : MPEG-4\nFormat profile                           : Base Media / Version 2\nCodec ID                                 : mp42\nFile size                                : 1.55 GiB\nDuration                                 : 1h 21mn\nOverall bit rate mode                    : Variable\nOverall bit rate                         : 2 707 Kbps\nEncoded date                             : UTC 2011-06-22 12:34:55\nTagged date                              : UTC 2011-06-22 12:34:55\n\n\nVideo\nID                                       : 1\nFormat                                   : AVC\nFormat/Info                              : Advanced Video Codec\nFormat profile                           : &lt;a class=&quot;__cf_email__&quot; href=&quot;/cdn-cgi/l/email-protection&quot; data-cfemail=&quot;91d9f8f6f9d1dda2bfa0&quot;&gt;[email&amp;#160;protected]&lt;/a&gt;&lt;script cf-hash='f9e31' type=&quot;text/javascript&quot;&gt;\n/* &lt;![CDATA[ */!function(){try{var t=&quot;currentScript&quot;in document?document.currentScript:function(){for(var t=document.getElementsByTagName(&quot;script&quot;),e=t.length;e--;)if(t[e].getAttribute(&quot;cf-hash&quot;))return t[e]}();if(t&amp;&amp;t.previousSibling){var e,r,n,i,c=t.previousSibling,a=c.getAttribute(&quot;data-cfemail&quot;);if(a){for(e=&quot;&quot;,r=parseInt(a.substr(0,2),16),n=2;a.length-n;n+=2)i=parseInt(a.substr(n,2),16)^r,e+=String.fromCharCode(i);e=document.createTextNode(e),c.parentNode.replaceChild(e,c)}}}catch(u){}}();/* ]]&gt; */&lt;/script&gt;\nFormat settings, CABAC                   : Yes\nFormat settings, ReFrames                : 1 frame\nFormat settings, GOP                     : M=1, N=30\nCodec ID                                 : avc1\nCodec ID/Info                            : Advanced Video Coding\nDuration                                 : 1h 21mn\nBit rate                                 : 2 550 Kbps\nMaximum bit rate                         : 8 587 Kbps\nWidth                                    : 1 280 pixels\nHeight                                   : 720 pixels\nDisplay aspect ratio                     : 16:9\nFrame rate mode                          : Constant\nFrame rate                               : 25.000 fps\nColor space                              : YUV\nChroma subsampling                       : 4:2:0\nBit depth                                : 8 bits\nScan type                                : Progressive\nBits/(Pixel*Frame)                       : 0.111\nStream size                              : 1.46 GiB (94%)\nTagged date                              : UTC 2011-06-22 12:38:37\n\nAudio\nID                                       : 2\nFormat                                   : AAC\nFormat/Info                              : Advanced Audio Codec\nFormat profile                           : LC\nCodec ID                                 : 40\nDuration                                 : 1h 21mn\nBit rate mode                            : Variable\nBit rate                                 : 152 Kbps\nMaximum bit rate                         : 187 Kbps\nChannel(s)                               : 2 channels\nChannel positions                        : Front: L R\nSampling rate                            : 44.1 KHz\nCompression mode                         : Lossy\nStream size                              : 89.0 MiB (6%)\nEncoded date                             : UTC 2011-06-22 12:35:45\nTagged date                              : UTC 2011-06-22 12:38:37\n\n\n\njustadog who uploaded this..","torrent":{"xt":"urn:btih:ed4edede4ba5be7e399555194e65eb9d0be442db","amp;dn":"Editors+-+Live+from+Berlin+Festival+2010+%5BHD%5D+%5B720P%5D","amp;tr":["udp%3A%2F%2Ftracker.openbittorrent.com%3A80","udp%3A%2F%2Fopen.demonii.com%3A1337","udp%3A%2F%2Ftracker.coppersurfer.tk%3A6969","udp%3A%2F%2Fexodus.desync.com%3A6969"],"infoHash":"ed4edede4ba5be7e399555194e65eb9d0be442db","infoHashBuffer":{"type":"Buffer","data":[237,78,222,222,75,165,190,126,57,149,85,25,78,101,235,157,11,228,66,219]},"announce":[],"urlList":[]}}